<svg width="47" height="45" viewBox="0 0 47 45" fill="none" xmlns="http://www.w3.org/2000/svg">
<path d="M0 15.6953L3.7716 8.8291H43.2284L47 15.6953L45.1944 17.9844L7.80157 18.6287L0.774238 16.7592L0 15.6953Z" fill="#6072FF"/>
<path d="M1.54785 21.7879H45.4524V44.8042H1.54785V21.7879Z" fill="#5669FF" fill-opacity="0.7"/>
<path d="M0 15.6953H46.9993V23.1417H0V15.6953Z" fill="#6072FF"/>
<path d="M5.85095 27.6389H41.1492V40.3072H5.85095V27.6389Z" fill="#5669FF" fill-opacity="0.8"/>
<path d="M36.9425 12.1178C36.9394 12.6552 36.5014 13.0882 35.964 13.0851C35.9635 13.0851 35.963 13.0851 35.9625 13.0851H11.3758C10.8384 13.089 10.3997 12.6566 10.3959 12.1192C10.3959 12.1187 10.3959 12.1182 10.3959 12.1178C10.399 11.5804 10.837 11.1474 11.3743 11.1505H11.3756H35.9625C36.4999 11.1466 36.9386 11.5791 36.9424 12.1164C36.9425 12.1168 36.9425 12.1173 36.9425 12.1178Z" fill="#575B6D"/>
<path d="M31.7238 7.69348C31.7242 9.71643 30.9188 11.6562 29.486 13.0843H18.3744C16.9438 11.6549 16.1396 9.7158 16.1387 7.69348C16.1366 6.4643 16.4353 5.25315 17.0088 4.16583C17.6716 2.89823 18.6735 1.83964 19.9026 1.10805C21.7849 -0.0122186 24.0485 -0.298067 26.1502 0.31926C29.4404 1.2657 31.7111 4.27003 31.7238 7.69348Z" fill="#F6C863"/>
<path d="M30.1814 7.69365C30.1837 9.87624 29.0724 11.9094 27.2341 13.0858H20.2984C17.319 11.1707 16.4562 7.20302 18.3712 4.22357C18.9463 3.32885 19.7349 2.59116 20.6661 2.07704C22.4466 1.0964 24.5864 1.01757 26.4343 1.86442C28.7166 2.90648 30.181 5.18456 30.1814 7.69365Z" fill="#EAB54E"/>
<path d="M29.2519 7.69342C29.2521 10.3363 27.3673 12.6033 24.7688 13.0856H22.7652C19.7851 12.5263 17.8226 9.65718 18.3818 6.6771C18.4617 6.25125 18.5918 5.83634 18.7692 5.44108V5.43685C19.2798 4.31112 20.1545 3.39004 21.2523 2.8217C21.8131 2.53001 22.4206 2.33878 23.0473 2.25672C23.2857 2.22327 23.5259 2.20537 23.7666 2.20325C24.2745 2.20251 24.78 2.27412 25.2677 2.41587H25.2719C27.6295 3.08703 29.2548 5.24214 29.2519 7.69342Z" fill="#F6C863"/>
<path d="M27.2212 7.38603C27.1441 6.4407 26.3626 5.70787 25.4143 5.69171C24.4358 5.69171 23.9208 6.39992 23.4726 7.54443C23.132 8.37835 22.7533 8.8134 22.1341 8.8134C21.4919 8.8134 21.0319 8.27553 21.0319 7.47903C21.0304 7.34674 21.0409 7.21469 21.0632 7.08427C21.1204 6.64698 21.2749 6.22797 21.5157 5.85832L20.7617 5.59149C20.5657 5.89052 20.428 6.22399 20.3558 6.57412V6.57834C20.301 6.81831 20.2712 7.06338 20.2669 7.30944H19.6985V8.01765H20.3018C20.3949 9.00923 21.2171 9.77327 22.2129 9.79329C23.2151 9.79329 23.7988 9.20879 24.2707 8.05595C24.673 7.07743 24.9656 6.666 25.5508 6.666C25.9998 6.666 26.5182 6.99126 26.5182 7.85714C26.523 8.35522 26.3906 8.84498 26.1352 9.27282L26.8781 9.55084C27.1319 9.10609 27.2663 8.6034 27.2687 8.09138H27.8489V7.38603H27.2212Z" fill="#EAB54E"/>
</svg>
